HIERARCHY
ROOT Hips
{
  OFFSET 26.7874 99.4974 20.5785
  CHANNELS 6 Xposition Yposition Zposition Zrotation Xrotation Yrotation
  JOINT ToSpine
  {
    OFFSET -0.0105055 1.38907 -7.13956
    CHANNELS 3 Zrotation Xrotation Yrotation
    JOINT Spine
    {
      OFFSET 0.0105055 10 1
      CHANNELS 3 Zrotation Xrotation Yrotation
      JOINT Spine1
      {
        OFFSET 0 12 1.60637
        CHANNELS 3 Zrotation Xrotation Yrotation
        JOINT Neck
        {
          OFFSET 0 27 2.26658
          CHANNELS 3 Zrotation Xrotation Yrotation
          JOINT Head
          {
            OFFSET 0 9 2.12705
            CHANNELS 3 Zrotation Xrotation Yrotation
            End Site
            {
              OFFSET 0 11 2
            }
          }
        }
        JOINT LeftShoulder
        {
          OFFSET 8 19.6109 2.86452
          CHANNELS 3 Zrotation Xrotation Yrotation
          JOINT LeftArm
          {
            OFFSET 12 1 0.681055
            CHANNELS 3 Zrotation Xrotation Yrotation
            JOINT LeftForeArm
            {
              OFFSET 19 0 -1.52608
              CHANNELS 3 Zrotation Xrotation Yrotation
              JOINT LeftHand
              {
                OFFSET 23 0 0
                CHANNELS 3 Zrotation Xrotation Yrotation
                End Site
                {
                  OFFSET 10 0 0
                }
              }
            }
          }
        }
        JOINT RightShoulder
        {
          OFFSET -8 19.6109 2.86452
          CHANNELS 3 Zrotation Xrotation Yrotation
          JOINT RightArm
          {
            OFFSET -12 1 0.681055
            CHANNELS 3 Zrotation Xrotation Yrotation
            JOINT RightForeArm
            {
              OFFSET -19 0 -1.52608
              CHANNELS 3 Zrotation Xrotation Yrotation
              JOINT RightHand
              {
                OFFSET -23 0 0
                CHANNELS 3 Zrotation Xrotation Yrotation
                End Site
                {
                  OFFSET -10 0 0
                }
              }
            }
          }
        }
      }
    }
  }
  JOINT LeftUpLeg
  {
    OFFSET 9 -7.17245 0
    CHANNELS 3 Zrotation Xrotation Yrotation
    JOINT LeftLeg
    {
      OFFSET 0 -44.1113 0
      CHANNELS 3 Zrotation Xrotation Yrotation
      JOINT LeftFoot
      {
        OFFSET 0 -36.1829 0
        CHANNELS 3 Zrotation Xrotation Yrotation
        JOINT LeftToeBase
        {
          OFFSET 0 -4.84184 13
          CHANNELS 3 Zrotation Xrotation Yrotation
          End Site
          {
            OFFSET 0 1 6
          }
        }
      }
    }
  }
  JOINT RightUpLeg
  {
    OFFSET -9 -7.17245 0
    CHANNELS 3 Zrotation Xrotation Yrotation
    JOINT RightLeg
    {
      OFFSET 0 -44.0551 0
      CHANNELS 3 Zrotation Xrotation Yrotation
      JOINT RightFoot
      {
        OFFSET 0 -36.1469 0
        CHANNELS 3 Zrotation Xrotation Yrotation
        JOINT RightToeBase
        {
          OFFSET 0 -4.92256 13
          CHANNELS 3 Zrotation Xrotation Yrotation
          End Site
          {
            OFFSET 0 1 6
          }
        }
      }
    }
  }
}
MOTION
Frames:	19
Frame Time:	0.0333333
26.7813 99.4846 20.5616 0.880037 -2.59041 -4.34425 0 0 0 3.17325 2.1236 1.51534 -6.03516 0.65568 2.39604 6.84521 0.0701438 -0.82072 -4.53894 0.535459 2.25819 -28.7103 3.0099 -5.13303 -43.8147 30.0119 -15.2695 -6.64795 -14.857 -3.4077 -9.06344 0.393736 -4.98919 24.0008 4.93445 12.7108 54.4882 19.1278 4.18541 4.53082 -4.75973 12.1873 2.52282 0.0796855 3.62497 -0.00460464 1.14864 7.59664 -1.30812 10.3195 -0.0689326 -1.76203 -11.419 -0.175928 1.2178 7.15481 -5.63877 -2.2834 1.45211 -6.93704 0.31627 7.72291 1.17225 -10.8334 -4.53917 -0.426306 2.85309 -10.4421 -1.89317 
26.7948 99.4113 20.5617 0.905465 -2.4307 -4.05549 0 0 0 3.03453 1.95103 1.38815 -5.79142 0.646845 2.2179 6.38132 0.221709 -0.701227 -3.93882 0.286027 2.10102 -28.9589 3.01563 -5.08897 -43.6578 30.21 -15.2121 -6.86514 -15.646 -3.59602 -8.35287 0.398655 -5.4529 23.9431 5.0036 12.9647 54.4568 18.9561 4.11612 4.06938 -2.79233 11.9178 2.11945 0.0708921 3.81639 -0.00633366 0.973852 7.48785 -1.3465 10.2944 -0.446243 -0.621998 -11.4286 -0.0625227 1.17133 6.60408 -5.45214 -2.26824 1.3575 -6.95371 0.412313 7.55858 0.759083 -11.5389 -4.22761 -0.427325 3.22914 -11.9206 -1.76012 
26.883 99.307 20.6752 0.940617 -2.23923 -3.0768 0 0 0 3.04011 1.075 1.07735 -5.56463 1.46169 1.87541 6.26881 0.427118 -0.838168 -4.08601 -0.366098 1.95632 -29.6941 3.10381 -5.16217 -42.6988 30.7066 -15.6516 -7.00567 -16.3801 -3.92111 -8.3998 0.278703 -3.79268 23.9347 4.93091 12.7328 54.103 17.3475 4.91001 3.80581 -1.45406 10.4975 2.56979 0.0912729 4.07325 -0.163592 0.842827 7.02838 -1.19518 10.0174 -1.54966 1.16494 -10.9976 0.111482 0.966905 4.45375 -4.55366 -2.35246 1.53155 -7.29945 0.790317 7.19504 0.105218 -12.7525 -3.85983 -0.432015 3.33176 -12.2827 -2.45717 
26.878 99.316 20.5908 0.838774 -2.39926 -3.4299 0 0 0 3.23399 1.94185 1.25598 -5.69342 0.685482 2.08308 6.3014 0.488653 -0.824252 -4.03984 -0.19827 1.97802 -29.3776 3.09943 -5.22549 -43.1694 30.805 -15.4809 -7.18775 -17.6965 -4.14971 -8.02352 0.266257 -3.79591 23.8777 4.88278 12.6043 54.2221 17.4939 4.80839 3.77677 -1.43204 10.656 2.70442 0.0911854 3.85809 -0.0591896 1.0796 7.18597 -1.41758 9.80474 -1.40225 2.29402 -10.1841 0.204905 0.831321 2.81552 -3.86155 -2.24842 1.46244 -7.16747 0.646824 7.51087 0.332569 -12.4108 -4.16215 -0.452105 3.22279 -11.8555 -2.30457 
26.9205 99.3233 20.6593 0.9486 -2.54895 -3.66962 0 0 0 3.23259 1.82584 1.47563 -5.70558 1.0143 2.32646 6.18497 0.590135 -0.880957 -4.07711 -0.358913 1.89556 -29.3515 3.14499 -5.35933 -43.8108 29.0524 -15.9101 -6.89713 -16.6255 -2.83632 -7.87854 0.275724 -4.00285 23.7178 4.83061 12.514 54.3949 17.2044 4.82327 3.47712 -0.523904 10.6351 2.60886 0.0830677 3.64767 -0.313287 1.50799 7.05637 -1.37226 9.32634 -0.994106 2.44595 -9.9276 0.211828 0.810684 2.51118 -3.74663 -2.4683 1.54928 -7.36163 0.633913 7.76285 0.657616 -12.0862 -4.61545 -0.488197 3.11444 -11.4553 -1.96668 
26.8636 99.2728 20.6358 0.710646 -2.0674 -3.74831 0 0 0 3.8729 1.44718 1.35239 -6.37856 0.952714 2.28273 6.31769 0.477238 -0.728771 -4.07516 -0.333982 2.07972 -29.1708 3.04728 -5.12837 -43.7844 29.039 -15.7673 -6.80257 -16.4969 -3.03529 -7.91069 0.285071 -4.12401 23.8363 4.94136 12.8167 54.4963 17.1153 4.99618 3.27058 0.60412 10.3787 2.57344 0.0888403 3.95196 0.156663 0.533307 7.36437 -1.47992 10.3907 -1.24893 2.00709 -10.6425 0.187183 0.788097 2.91346 -3.71214 -2.07072 1.13451 -6.91179 0.711574 7.41723 0.392783 -12.8637 -3.95566 -0.44668 3.32962 -12.2764 -2.4365 
26.8579 99.3049 20.7709 0.750486 -2.27284 -3.51715 0 0 0 3.39874 1.24409 1.54368 -5.77459 1.34249 2.38181 6.39977 0.631301 -1.00861 -4.29653 -0.472522 1.88153 -29.2008 3.15397 -5.42211 -43.6669 28.8946 -16.0398 -6.64722 -14.9344 -2.65344 -8.51773 0.308575 -4.14324 23.9059 4.80874 12.3493 54.2821 17.0821 5.08501 3.45535 -0.135025 10.2546 2.58614 0.0857056 3.78452 0.0325828 1.00332 7.24525 -1.38472 9.97333 -1.22578 2.43278 -10.3295 0.220135 0.88665 2.70831 -4.06434 -2.12782 1.55702 -7.07083 0.656448 7.25718 0.21728 -12.3804 -4.11246 -0.445077 3.22473 -11.8977 -1.83146 
26.9148 99.3786 20.8095 0.77767 -2.34068 -3.76095 0 0 0 3.66352 1.37237 1.51274 -6.06522 1.31497 2.43581 6.58148 0.447628 -0.955671 -4.52525 -0.333381 2.03382 -29.0547 3.08497 -5.26305 -43.7205 28.7725 -15.9707 -6.62658 -15.0237 -2.47765 -8.27906 0.341676 -4.71684 23.9792 4.87811 12.5384 54.2288 16.8213 5.2638 3.54725 -0.720781 10.1242 3.18213 0.111619 4.02192 -0.147614 1.50447 7.08446 -1.32555 9.1236 -1.01305 2.20099 -10.0134 0.192176 0.799274 2.91513 -3.75523 -2.2172 1.45527 -7.14832 0.500078 7.70066 0.550814 -11.799 -4.58859 -0.47351 2.95216 -10.8434 -1.72644 
26.8343 99.2813 20.8296 0.636181 -1.74708 -3.78466 0 0 0 3.80228 0.756683 1.48339 -6.12976 1.28578 2.35577 6.29485 0.441232 -0.830734 -4.28931 -0.362479 2.01692 -29.2643 3.04303 -5.09309 -43.3616 29.6895 -15.6422 -6.85778 -16.0492 -3.31927 -8.04856 0.322397 -4.58103 23.9859 4.94565 12.7539 54.2771 16.9507 5.18097 3.62898 -1.12148 10.1945 3.17201 0.108281 3.97306 0.304316 0.318612 7.45563 -1.52576 10.4491 -1.35366 2.07551 -10.7283 0.194299 0.769994 2.9668 -3.65048 -1.87429 1.03783 -6.70258 0.591604 7.20646 -0.0540948 -12.8999 -4.17125 -0.471655 3.19234 -11.763 -1.94828 
26.8731 99.3171 20.9052 0.626385 -1.9315 -3.41227 0 0 0 3.28502 0.885848 1.5509 -5.28464 1.31329 2.2828 6.23673 0.679934 -1.02844 -4.4283 -0.696263 1.83635 -29.7885 3.17012 -5.32425 -42.6215 30.5515 -15.8841 -7.06289 -16.4909 -3.20929 -8.21141 0.33091 -4.60345 23.7597 4.79407 12.3742 54.4298 17.4857 4.87028 3.75888 -1.44825 10.6007 1.75922 0.0689841 4.46975 0.174831 0.651488 7.23623 -1.35756 10.1516 -1.48814 2.7003 -10.3251 0.243648 0.791635 2.34959 -3.65209 -1.96015 1.36619 -6.95109 0.584742 7.15716 -0.358012 -12.2275 -4.58488 -0.491549 3.02087 -11.1888 -1.01665 
26.8471 99.3123 20.9562 0.534101 -1.93621 -3.82016 0 0 0 3.69271 1.03328 1.71222 -5.84163 1.12264 2.53901 6.6751 0.745603 -1.22717 -4.60753 -0.700734 1.8158 -29.2469 3.1485 -5.395 -43.4248 29.1772 -15.9969 -6.72157 -14.1714 -2.08912 -8.556 0.371856 -4.96939 23.958 4.85257 12.466 54.4012 17.1435 4.9754 3.68214 -1.29761 10.4934 2.22267 0.0796305 4.09863 0.369479 0.725042 7.49886 -1.49033 10.2432 -1.45536 1.95388 -10.7609 0.184291 0.742395 3.20856 -3.57784 -1.77648 1.38341 -6.69331 0.495421 7.14184 0.0106659 -12.3196 -4.42462 -0.477788 3.00469 -11.0392 -1.84032 
26.8783 99.3185 20.9992 0.650221 -1.97659 -3.74665 0 0 0 3.23136 1.15424 1.66561 -5.28239 0.997339 2.3972 6.33812 0.822838 -1.03353 -4.41832 -0.820798 1.86297 -29.7596 3.15492 -5.28987 -42.6232 30.6054 -15.9716 -7.15443 -16.3342 -2.75235 -8.39895 0.353215 -4.80755 23.9013 4.8849 12.5995 54.3442 17.1014 4.94165 3.64491 -0.879763 10.2778 2.15386 0.0772676 4.12378 0.1274 0.845978 7.29874 -1.37634 10.06 -1.19812 2.042 -10.6277 0.189999 0.754189 3.04066 -3.60014 -1.97177 1.42169 -6.90332 0.573258 7.18557 0.120429 -12.4405 -4.4632 -0.486679 3.04596 -11.1991 -1.85611 
26.8479 99.2932 21.09 0.63627 -1.91238 -3.8895 0 0 0 2.96186 0.809438 1.77355 -4.72067 1.38683 2.4022 5.67093 0.666032 -0.882466 -4.05023 -0.695344 1.72564 -30.6735 3.17068 -5.11648 -41.5745 31.6301 -15.9618 -7.42178 -17.6478 -3.49482 -8.26163 0.336882 -4.66204 23.5347 4.80278 12.5153 54.4233 16.9975 5.11961 3.70885 -1.35713 10.2911 2.37724 0.0806512 3.95759 0.188013 0.816501 7.38696 -1.45314 10.1558 -1.09805 2.2451 -10.6519 0.209397 0.760255 2.99911 -3.61785 -1.9414 1.35322 -6.84171 0.560905 7.21679 0.400493 -12.4129 -4.23354 -0.460594 3.18162 -11.705 -2.17259 
26.9642 99.3085 21.1422 0.938213 -1.79759 -3.63559 0 0 0 3.13466 0.725822 1.65165 -5.43724 1.29005 2.43601 6.49844 0.718075 -1.23103 -4.59602 -0.782975 1.75149 -29.6396 3.16519 -5.34558 -43.2431 29.5833 -15.8421 -6.90206 -15.5371 -2.52605 -8.151 0.328142 -4.60329 23.9733 4.84905 12.4471 54.4566 17.146 5.04612 3.77895 -1.15865 10.0206 1.38932 0.0562068 4.60264 -0.330226 0.881433 6.90173 -1.28947 9.64492 -0.988323 2.29763 -10.3382 0.207818 0.705751 2.84887 -3.38935 -2.44288 1.11807 -7.27292 0.702777 7.55903 0.631247 -12.4655 -4.22125 -0.461501 3.23784 -11.9222 -2.24866 
26.9752 99.3035 21.1996 1.05496 -1.83701 -3.63998 0 0 0 2.93919 0.823875 1.60717 -5.38529 1.1989 2.38877 6.54001 0.884062 -1.15931 -4.5234 -0.941773 1.82197 -29.5629 3.14377 -5.30485 -43.2805 29.6563 -15.6487 -6.86507 -15.5293 -2.81853 -8.35319 0.33062 -4.52528 24.0726 4.88404 12.5113 54.2989 16.7453 4.96318 3.72676 -1.61962 10.2616 2.37657 0.0904409 4.3569 -0.398632 0.968356 6.9653 -1.48375 9.63539 -0.95075 2.74565 -10.2952 0.247453 0.753952 2.4733 -3.52336 -2.57722 1.10974 -7.34993 0.694543 7.74282 0.441719 -12.8594 -4.52126 -0.509615 3.22921 -11.9231 -1.77486 
26.9864 99.3076 21.2886 1.10107 -1.96734 -3.64605 0 0 0 2.97473 0.954413 1.54676 -5.58955 1.20707 2.37268 6.84622 0.788162 -1.24544 -4.65076 -0.633932 1.8641 -29.3432 3.11343 -5.27317 -43.6688 28.7931 -15.6175 -6.58812 -14.1762 -2.48718 -8.64563 0.347218 -4.58983 24.2054 4.9416 12.6315 54.3334 16.5646 4.86934 3.63597 -1.40493 10.3909 2.69003 0.0993647 4.22659 -0.465428 1.25459 6.95533 -1.45318 9.46635 -1.00818 2.27497 -10.4398 0.20769 0.74761 2.87464 -3.55417 -2.61763 1.2938 -7.38444 0.62871 7.77341 0.569354 -12.5544 -4.47678 -0.492473 3.26759 -12.0473 -2.14072 
26.972 99.3152 21.3076 1.0802 -1.731 -3.72213 0 0 0 3.13358 0.803843 1.56694 -5.78112 1.13233 2.42268 6.93881 0.83361 -1.2169 -4.66474 -0.555586 1.9288 -29.3298 3.1144 -5.27913 -43.6198 28.6266 -15.7489 -6.56754 -13.9839 -2.25649 -8.78632 0.368359 -4.79284 24.2795 4.92969 12.5562 54.3127 16.7987 4.95142 3.81472 -1.84576 10.266 2.37021 0.0892058 4.32091 -0.471307 0.992619 6.8518 -1.3449 9.52838 -0.81487 2.10546 -10.5739 0.194013 0.785488 3.21598 -3.74166 -2.56894 1.05615 -7.29366 0.623989 7.70365 0.532505 -12.5945 -4.26131 -0.469286 3.31717 -12.2427 -2.02897 
26.9538 99.3764 21.3343 0.993078 -1.58593 -3.68328 0 0 0 2.95276 0.677698 1.55743 -5.3112 1.11988 2.33964 6.63359 1.02079 -1.09644 -4.35367 -0.742831 1.89012 -29.4508 3.13569 -5.30969 -43.5356 28.8236 -15.7626 -6.69504 -14.7881 -2.53069 -8.45837 0.346064 -4.67572 24.1669 4.92724 12.6043 54.3481 17.0744 4.92872 4.18154 -3.23426 10.152 1.93066 0.0749426 4.45514 -0.389108 1.03029 6.81094 -1.37617 9.08884 -0.81781 2.66753 -10.0084 0.233514 0.77143 2.37901 -3.57765 -2.46044 0.877232 -7.22972 0.432425 7.82988 0.525845 -11.4646 -4.6749 -0.469635 3.006 -11.0707 -1.57888 
26.983 99.2936 21.4234 1.0811 -1.61486 -3.64492 0 0 0 3.02565 0.443163 1.55797 -5.5737 1.45877 2.37638 6.73194 0.958668 -1.12675 -4.49045 -0.643757 1.92012 -29.2682 3.1589 -5.41944 -43.7193 28.5979 -15.863 -6.66161 -14.7557 -2.49544 -8.07409 0.304417 -4.31138 24.2025 4.90266 12.5071 54.2384 16.72 5.01681 3.66204 -1.2171 10.1537 2.67082 0.0981433 4.21287 -0.444451 0.912039 6.87305 -1.39988 9.57233 -0.915364 2.27786 -10.4809 0.209059 0.743145 2.66285 -3.50763 -2.56401 1.14021 -7.34173 0.640594 7.50879 0.530399 -12.3441 -4.47478 -0.484265 3.24808 -11.9676 -2.19814 
